<svg enable-background="new 0 0 84.2 98.3" viewBox="0 0 84.2 98.3" xmlns="http://www.w3.org/2000/svg"><g fill="#fff"><path d="m20.7 28 3 1.6 9.5 5 .6.3c.3.2.6.3 1 .5l.6.3c2 1.1 4.4 1.6 6.8 1.6 2.5 0 4.9-.6 7-1.7l15-8.3c3.4-1.9 5.4-5.1 5.4-8.7 0-3.7-2-6.8-5.4-8.7l-14.7-8.2c-4.2-2.3-10.1-2.3-14.3.1l-14.9 8.7c-3.3 1.9-5.2 5.1-5.2 8.7.1 3.8 2.1 6.9 5.6 8.8zm3-9 14.9-8.7c2.1-1.2 5.5-1.2 7.7-.1l14.7 8.2c.2.1.3.2.4.2-.1.1-.2.2-.4.2l-9.4 5.2-.2-.1c-5.4-3-12.9-2.9-18.2.1l-.3.2-9.1-4.8c-.2-.1-.3-.2-.5-.3.2 0 .3-.1.4-.1z"/><path d="m77.3 58.9-1.5-.8-9.2 5.1 7.5 4.1c2 1.1 3.2 2.5 3 3.2-.6 2-1.4 2.1-3 3.2l-24.8 13.7c-4.1 2.2-10.3 2.3-14.4.1l-24.1-12.8c-2.5-1.3-3.1-2.7-3.1-3.3 0-.7.8-2 2.7-3.1l7.8-4.5-9.2-4.9-1.9 1.1c-4.6 2.7-7.2 6.9-7.1 11.6.1 4.8 2.9 9 7.7 11.6l24.1 12.8c3 1.6 6.6 2.4 10.2 2.4 3.7 0 7.4-.9 10.5-2.5l24.8-13.7c4.7-2.6 6.9-6.8 6.9-11.6s-2.2-9.1-6.9-11.7z"/><path d="m13.7 56.4 19.7 10.4c2.6 1.4 5.6 2.1 8.7 2.1s6.3-.7 8.9-2.2l11-6.1 9.2-5.1c4.2-2.3 6.5-6.1 6.5-10.4s-2.4-8.1-6.5-10.4l-6.2-3.4-9.2 5.4 12.2 6.7c1.4.8 1.9 1.5 1.9 1.8-.1.2-.6 1-2 1.8l-6.2 3.4-8.7-4.9c-6.4-3.5-15.1-3.4-21.4.2l-8.9 5.2-5.9-3.1c-1.5-.8-2-1.6-2.1-1.8.1-.2.5-.9 1.8-1.7l12.1-7-9.5-5-6 3.5c-4 2.3-6.3 6.1-6.2 10.3.1 4.3 2.6 8.1 6.8 10.3zm21.3-2.4c4.2-2.4 10.5-2.5 14.8-.1l2.8 1.5-4.8 2.7c-3.2 1.7-7.9 1.8-11.2.1l-4.6-2.4z"/></g></svg>