<svg version="1.1" id="Layer_1" xmlns="http://www.w3.org/2000/svg" xmlns:xlink="http://www.w3.org/1999/xlink" x="0px" y="0px" viewBox="0 0 314 94" style="enable-background:new 0 0 314 94;" xml:space="preserve">
 <g>
  <path d="M12.8,23.3C9.5,13.3,6.3,6.6,1.2,1.4V1.2h37.4v0.2c-4.9,5.6-6.5,13-2.3,24l16.3,45.1L67.8,29c4.7-12.5,2.8-22.9-4.3-27.6
		V1.2h22.4v0.2c-5.4,4.9-9.5,13.1-12.7,22.2l-24,65.8H37.1L12.8,23.3z">
  </path>
  <path d="M106.1,81.5c-3.4,4.9-9.1,9.4-16.8,9.4c-7.3,0-13.6-3.7-13.6-12c0-13,16.4-18.6,30-21.5v-7.4c0-7.1-2.9-10.3-11.5-10.3
		c-4.7,0-10.2,1-15.6,3.2L78.1,42c5.8-7.1,15.1-13.3,28.2-13.3c13,0,18.7,6.2,18.7,15.7v30.8c0,2.9,1.3,5.4,5.2,5.4
		c1.3,0,3-0.4,4.6-1.4l0.2,0.5c-1.7,4-5.9,11-16.1,11C111.6,90.7,107.1,86.9,106.1,81.5z M105.7,79.2V59.9
		c-8.5,2.3-13.1,7.1-13.1,12.7c0,4.7,2.8,7.8,8,7.8C102.6,80.4,104.3,80,105.7,79.2z">
  </path>
  <path d="M138.5,89v-0.2c1.9-5.8,3-10.8,3-20.9l-0.1-13.6c0-9-1.7-13.9-6-19.1V35l24.8-7v12l0.5,0.1c3.2-5.2,9.5-11.5,20.2-11.5
		c10.6,0,18,6.5,18,16.7v22.4c0,10.2,1,15.1,2.9,21V89h-25.1v-0.2c1.9-5.8,2.9-11.2,2.9-20.8V46.5c0-5.2-2.5-8.9-8.3-8.9
		c-4.4,0-8.3,2.6-10.6,5.9v24.4c0,10,1,15,2.9,20.9V89H138.5z">
  </path>
  <path d="M212.7,74.1V33.2H206v-1.1l24.7-15.5h1.3v13.9h14.3v2.6h-14.3v40.4c0,7.2,3.8,9.5,8.6,9.5c4.2,0,6.7-1.9,6.8-2l0.4,0.4
		c-2.8,4.7-9,9.4-18.6,9.4C219.6,90.8,212.7,86.1,212.7,74.1z">
  </path>
  <path d="M281.9,81.5c-3.4,4.9-9.1,9.4-16.8,9.4c-7.3,0-13.6-3.7-13.6-12c0-13,16.4-18.6,30-21.5v-7.4c0-7.1-2.9-10.3-11.5-10.3
		c-4.7,0-10.2,1-15.6,3.2l-0.5-0.8c5.8-7.1,15.1-13.3,28.2-13.3c13,0,18.7,6.2,18.7,15.7v30.8c0,2.9,1.3,5.4,5.2,5.4
		c1.3,0,3-0.4,4.6-1.4l0.2,0.5c-1.7,4-5.9,11-16.1,11C287.4,90.7,282.9,86.9,281.9,81.5z M281.5,79.2V59.9
		c-8.5,2.3-13.1,7.1-13.1,12.7c0,4.7,2.8,7.8,8,7.8C278.4,80.4,280.1,80,281.5,79.2z">
  </path>
 </g>
</svg>